<svg width="155" height="23" viewBox="0 0 155 23" fill="none" xmlns="http://www.w3.org/2000/svg">
<g id="new_logo_utils.svg" clip-path="url(#clip0_64_203)">
<g id="Capa 2">
<g id="Group">
<path id="Vector" d="M-0.000732422 0.61615H17.5613V4.76344H11.2123V21.8972H6.32028V4.76344H-0.000732422V0.61615Z" fill="white"/>
<path id="Vector_2" d="M26.2866 21.8984C26.1726 21.7262 26.0679 21.4842 25.9724 21.17C25.877 20.8558 25.8095 20.4788 25.7723 20.0389H25.7141C25.2184 20.7441 24.6226 21.298 23.9267 21.6983C23.2308 22.0986 22.2906 22.2987 21.1083 22.2987C20.3659 22.2987 19.6724 22.1987 19.0347 21.9985C18.3947 21.7984 17.8431 21.5075 17.3753 21.1258C16.9075 20.7441 16.5468 20.2623 16.2884 19.6805C16.0301 19.0987 15.9021 18.4377 15.9021 17.693C15.9021 16.8551 16.058 16.1593 16.3745 15.6054C16.6887 15.0538 17.1123 14.6046 17.6476 14.2602C18.1806 13.918 18.8113 13.6551 19.5351 13.4735C20.2589 13.292 21.0408 13.1547 21.881 13.0593C23.2355 12.8684 24.213 12.6403 24.8134 12.3727C25.4139 12.1051 25.7141 11.6861 25.7141 11.1136C25.7141 10.5411 25.5326 10.1175 25.1695 9.78239C24.8064 9.44958 24.2339 9.28202 23.4543 9.28202C22.5955 9.28202 21.9531 9.46355 21.5226 9.82428C21.0944 10.1873 20.85 10.6738 20.7941 11.2835H16.6468C16.6655 10.6365 16.8191 10.0058 17.1053 9.39606C17.3916 8.7863 17.8105 8.24636 18.3644 7.77856C18.9183 7.31077 19.6142 6.94073 20.452 6.66378C21.2899 6.38682 22.272 6.24951 23.3984 6.24951C24.3712 6.24951 25.2091 6.32166 25.9166 6.46363C26.6218 6.60559 27.2408 6.84065 27.7761 7.16415C28.5767 7.62031 29.1632 8.23705 29.5356 9.00972C29.9079 9.78239 30.0941 10.6831 30.0941 11.7117V19.5199C30.0941 20.6836 30.285 21.3888 30.6667 21.6378V21.8961H26.2913L26.2866 21.8984ZM22.5117 19.3524C23.5218 19.3524 24.327 19.0754 24.9298 18.5238C25.5302 17.9699 25.8305 17.2741 25.8305 16.4362V14.4626C25.507 14.6721 25.1113 14.8397 24.6435 14.963C24.1757 15.0887 23.694 15.2051 23.1983 15.3214C22.2068 15.5309 21.4714 15.7892 20.9966 16.0941C20.5195 16.399 20.2821 16.8854 20.2821 17.5533C20.2821 18.2213 20.5009 18.6891 20.9408 18.9544C21.3783 19.222 21.9043 19.3547 22.514 19.3547L22.5117 19.3524Z" fill="white"/>
<path id="Vector_3" d="M33.1801 0.616089H37.6998V21.8972H33.1801V0.616089Z" fill="white"/>
<path id="Vector_4" d="M48.0237 22.3523C46.7832 22.3523 45.6684 22.1475 44.677 21.7379C43.6856 21.3283 42.8407 20.7604 42.1449 20.0366C41.449 19.3128 40.916 18.4633 40.5437 17.4905C40.1713 16.5177 39.9851 15.4587 39.9851 14.316C39.9851 13.1733 40.1759 12.1097 40.5576 11.1253C40.9393 10.1431 41.4723 9.29133 42.1588 8.5652C42.8454 7.8414 43.6646 7.27354 44.6188 6.86393C45.573 6.45432 46.6296 6.24951 47.7933 6.24951C48.8801 6.24951 49.8576 6.42173 50.7257 6.76385C51.5938 7.10597 52.3595 7.58307 53.0274 8.19283C53.8862 9.03299 54.5146 10.071 54.9149 11.3114C55.3152 12.5519 55.506 13.925 55.4874 15.4308H44.3884C44.5397 16.5759 44.9214 17.4719 45.5335 18.1189C46.1432 18.7682 46.9927 19.0917 48.0795 19.0917C48.7847 19.0917 49.3619 18.9637 49.8111 18.7054C50.2579 18.447 50.607 18.0816 50.856 17.6045H55.2035C55.0126 18.2725 54.7124 18.8962 54.3028 19.478C53.8932 20.0599 53.3882 20.5649 52.7877 20.9931C52.1873 21.4213 51.4867 21.7565 50.6861 21.9939C49.8855 22.2313 48.9988 22.3523 48.026 22.3523H48.0237ZM47.7956 9.42398C46.7646 9.42398 45.9826 9.72886 45.4497 10.3386C44.9167 10.9484 44.5723 11.7792 44.421 12.8265H50.9142C50.8374 11.7583 50.5232 10.9251 49.9693 10.3247C49.4154 9.72421 48.6916 9.42398 47.7956 9.42398Z" fill="white"/>
<path id="Vector_5" d="M62.0973 8.99576H62.1834C62.6605 8.08112 63.2935 7.39456 64.0848 6.93607C64.8761 6.47759 65.8047 6.24951 66.8729 6.24951C68.5509 6.24951 69.8519 6.7592 70.7782 7.77856C71.7021 8.79793 72.1653 10.1664 72.1653 11.884V21.8938H67.7038V12.7404C67.7038 11.9026 67.4897 11.23 67.0591 10.725C66.6309 10.2199 65.9955 9.96625 65.1577 9.96625C64.3199 9.96625 63.5751 10.2804 63.0398 10.9111C62.5069 11.5395 62.2392 12.3401 62.2392 13.3153V21.8961H57.7475V6.68007H62.0949V8.99576H62.0973Z" fill="white"/>
<path id="Vector_6" d="M73.8523 6.68131H76.1401V1.8172H80.5457V6.67898H83.52V9.53927H80.5457V17.0914C80.5457 17.664 80.6923 18.048 80.9879 18.2504C81.2834 18.4506 81.6977 18.5507 82.233 18.5507C82.3866 18.5507 82.5565 18.546 82.7473 18.5367C82.9382 18.5274 83.1081 18.5134 83.2617 18.4925H83.4898V21.8392C83.2431 21.8787 82.8986 21.9253 82.4611 21.9811C82.0212 22.0393 81.4976 22.0673 80.8878 22.0673C80.1826 22.0673 79.538 22.0044 78.9561 21.8811C78.3743 21.7577 77.8739 21.539 77.455 21.2224C77.0361 20.9083 76.7103 20.4986 76.4822 19.9936C76.2541 19.4886 76.1401 18.8439 76.1401 18.0619V9.53927H73.8523V6.67898V6.68131Z" fill="white"/>
<path id="Vector_7" d="M86.1799 0.616089H95.6475C98.1261 0.616089 100.023 1.27472 101.34 2.58966C101.989 3.23898 102.49 3.98606 102.841 4.83553C103.193 5.68268 103.37 6.63223 103.37 7.68185C103.37 8.73147 103.202 9.61818 102.869 10.456C102.536 11.2962 102.059 12.0153 101.44 12.6158C100.821 13.2162 100.072 13.684 99.1943 14.0168C98.3169 14.352 97.3255 14.5172 96.22 14.5172H91.1278V21.8972H86.1799V0.616089ZM91.1278 10.6562H95.2751C96.3038 10.6562 97.0904 10.3885 97.635 9.85557C98.1796 9.32261 98.4496 8.59649 98.4496 7.68185C98.4496 6.76721 98.1773 6.02712 97.635 5.52209C97.0904 5.01706 96.3154 4.76338 95.3031 4.76338H91.1278V10.6562Z" fill="white"/>
<path id="Vector_8" d="M105.459 0.616089H110.007V4.53531H105.459V0.616089ZM105.487 6.6811H109.979V21.8972H105.487V6.6811Z" fill="white"/>
<path id="Vector_9" d="M112.067 6.68113H114.355V1.81702H118.761V6.6788H121.735V9.53908H118.761V17.0913C118.761 17.6638 118.907 18.0478 119.203 18.2503C119.498 18.4504 119.913 18.5505 120.448 18.5505C120.601 18.5505 120.771 18.5458 120.962 18.5365C121.153 18.5272 121.323 18.5132 121.477 18.4923H121.705V21.839C121.458 21.8786 121.113 21.9251 120.676 21.981C120.236 22.0391 119.712 22.0671 119.103 22.0671C118.397 22.0671 117.753 22.0042 117.171 21.8809C116.589 21.7575 116.089 21.5388 115.67 21.2223C115.251 20.9081 114.925 20.4985 114.697 19.9934C114.469 19.4884 114.355 18.8437 114.355 18.0617V9.53908H112.067V6.6788V6.68113Z" fill="white"/>
<path id="Vector_10" d="M131.372 22.3825C130.151 22.3825 129.05 22.1777 128.068 21.7681C127.085 21.3585 126.248 20.7906 125.552 20.0668C124.856 19.343 124.316 18.4889 123.934 17.5068C123.553 16.5247 123.362 15.4611 123.362 14.316C123.362 13.171 123.548 12.1097 123.92 11.1253C124.293 10.1431 124.821 9.29133 125.508 8.5652C126.194 7.8414 127.023 7.27354 127.995 6.86393C128.968 6.45432 130.055 6.24951 131.256 6.24951C132.266 6.24951 133.181 6.38682 134.002 6.66378C134.822 6.94073 135.534 7.32706 136.134 7.82278C136.735 8.3185 137.226 8.9143 137.607 9.61017C137.989 10.306 138.245 11.0647 138.38 11.884H134.033C133.879 11.1788 133.574 10.6202 133.118 10.2106C132.659 9.80101 132.059 9.59621 131.317 9.59621C130.172 9.59621 129.32 10.0244 128.756 10.8832C128.193 11.742 127.912 12.8847 127.912 14.316C127.912 15.7473 128.193 16.8342 128.756 17.6906C129.317 18.5494 130.172 18.9777 131.317 18.9777C132.154 18.9777 132.818 18.7403 133.304 18.2632C133.791 17.7861 134.081 17.1088 134.177 16.2314H138.496C138.459 17.0902 138.264 17.8954 137.91 18.6495C137.556 19.4036 137.077 20.0552 136.465 20.6091C135.855 21.163 135.115 21.5959 134.247 21.9101C133.379 22.2243 132.42 22.3825 131.372 22.3825Z" fill="white"/>
<path id="Vector_11" d="M145.074 6.76488V7.3374C145.074 7.56781 145.069 7.81451 145.06 8.08215C145.051 8.34979 145.046 8.6058 145.046 8.85482H145.132C145.59 8.0356 146.2 7.39559 146.964 6.93943C147.727 6.48095 148.642 6.25287 149.71 6.25287C151.388 6.25287 152.689 6.76256 153.615 7.78192C154.539 8.80129 155.002 10.1698 155.002 11.8873V21.8972H150.541V12.7438C150.541 11.9059 150.327 11.2333 149.896 10.7283C149.468 10.2233 148.832 9.96961 147.995 9.96961C147.157 9.96961 146.412 10.2838 145.877 10.9145C145.344 11.5429 145.076 12.3435 145.076 13.3186V21.8995H140.584V0.616089H145.076V6.76488H145.074Z" fill="white"/>
</g>
</g>
</g>
<defs>
<clipPath id="clip0_64_203">
<rect width="155" height="21.7675" fill="white" transform="translate(0 0.616272)"/>
</clipPath>
</defs>
</svg>
